<svg width="20" height="20" viewBox="0 0 20 20" fill="none" xmlns="http://www.w3.org/2000/svg">
<g clip-path="url(#clip0_67_9)">
<path d="M14.004 0H5.996C5.46663 0 4.95894 0.210292 4.58461 0.584615C4.21029 0.958937 4 1.46663 4 1.996V18.003C4 19.106 4.894 20 5.996 20H14.003C14.5325 20 15.0403 19.7897 15.4147 19.4154C15.7892 19.0412 15.9997 18.5335 16 18.004V1.996C16 1.46663 15.7897 0.958937 15.4154 0.584615C15.0411 0.210292 14.5334 0 14.004 0ZM10 19C9.31 19 8.75 18.553 8.75 18C8.75 17.447 9.31 17 10 17C10.69 17 11.25 17.447 11.25 18C11.25 18.553 10.69 19 10 19ZM14 16H6V2H14V16Z" fill="white"/>
</g>
<defs>
<clipPath id="clip0_67_9">
<rect width="20" height="20" fill="white"/>
</clipPath>
</defs>
</svg>
