<svg width="32" height="32" viewBox="0 0 32 32" fill="none" xmlns="http://www.w3.org/2000/svg">
<path d="M16 6.59399C11.746 6.59399 7.777 7.73399 5.062 9.56199H0C0.828 10.532 1.441 11.852 1.594 12.75C0.599021 14.1106 0.0625017 15.7524 0.062 17.438C0.0630603 19.5513 0.903159 21.5776 2.39765 23.0718C3.89214 24.5659 5.91873 25.4055 8.032 25.406C10.527 25.406 12.758 24.234 14.219 22.438C14.813 23.133 15.801 24.531 16 24.938C16 24.938 17.137 23.258 17.781 22.468C18.82 23.7451 20.2289 24.6692 21.8141 25.1134C23.3994 25.5575 25.0834 25.5 26.6346 24.9487C28.1859 24.3974 29.5285 23.3793 30.4779 22.0343C31.4273 20.6893 31.937 19.0833 31.937 17.437C31.9362 15.7521 31.4005 14.1109 30.407 12.75C30.559 11.852 31.172 10.531 32 9.56199H26.687C23.974 7.73399 20.25 6.59399 16 6.59399ZM16 7.93699C18.852 7.93699 21.438 8.47299 23.719 9.46899C21.6497 9.5357 19.6874 10.4044 18.247 11.8915C16.8065 13.3787 16.0007 15.3676 16 17.438C16 13.043 12.457 9.47699 8.062 9.46799C10.34 8.47699 13.152 7.93799 16 7.93799V7.93699ZM8.031 11C11.574 11 14.437 13.898 14.437 17.438C14.4375 18.2794 14.2722 19.1126 13.9504 19.8901C13.6287 20.6675 13.1569 21.3739 12.5619 21.9689C11.9669 22.5638 11.2605 23.0357 10.4831 23.3574C9.70564 23.6792 8.8724 23.8445 8.031 23.844C7.18945 23.8448 6.356 23.6796 5.57837 23.3579C4.80073 23.0362 4.09418 22.5642 3.49916 21.9691C2.90414 21.374 2.43233 20.6674 2.11073 19.8897C1.78914 19.112 1.62408 18.2785 1.625 17.437C1.625 13.899 4.488 11 8.031 11ZM23.969 11C27.508 11 30.375 13.898 30.375 17.438C30.3755 18.2794 30.2102 19.1126 29.8884 19.8901C29.5667 20.6675 29.0949 21.3739 28.4999 21.9689C27.9049 22.5638 27.1985 23.0357 26.4211 23.3574C25.6436 23.6792 24.8104 23.8445 23.969 23.844C23.1274 23.8449 22.2938 23.6798 21.5161 23.3582C20.7383 23.0365 20.0316 22.5646 19.4365 21.9695C18.8414 21.3744 18.3695 20.6677 18.0478 19.8899C17.7262 19.1122 17.5611 18.2786 17.562 17.437C17.562 13.898 20.426 11 23.969 11ZM7.937 13.531C6.90969 13.5323 5.92484 13.941 5.19842 14.6674C4.47201 15.3938 4.06332 16.3787 4.062 17.406C4.06332 18.4333 4.47201 19.4182 5.19842 20.1446C5.92484 20.871 6.90969 21.2797 7.937 21.281C8.96431 21.2797 9.94916 20.871 10.6756 20.1446C11.402 19.4182 11.8107 18.4333 11.812 17.406C11.8107 16.3789 11.4021 15.3942 10.6759 14.6678C9.94973 13.9414 8.96513 13.5326 7.938 13.531H7.937ZM23.969 13.531C22.9417 13.5323 21.9568 13.941 21.2304 14.6674C20.504 15.3938 20.0953 16.3787 20.094 17.406C20.094 19.543 21.832 21.25 23.969 21.25C26.105 21.25 27.844 19.543 27.844 17.406C27.8427 16.3787 27.434 15.3938 26.7076 14.6674C25.9812 13.941 24.9963 13.5323 23.969 13.531ZM7.937 14.72C8.6494 14.7211 9.33234 15.0045 9.83618 15.5081C10.34 16.0118 10.6237 16.6946 10.625 17.407C10.6239 18.1196 10.3404 18.8027 9.83653 19.3065C9.33267 19.8104 8.64958 20.0939 7.937 20.095C7.2246 20.0937 6.54176 19.81 6.03811 19.3062C5.53446 18.8023 5.25106 18.1194 5.25 17.407C5.25132 16.6946 5.53498 16.0118 6.03882 15.5081C6.54266 15.0045 7.2256 14.7211 7.938 14.72H7.937ZM23.969 14.72C24.6812 14.7213 25.3639 15.0048 25.8675 15.5085C26.3712 16.0121 26.6547 16.6948 26.656 17.407C26.656 18.887 25.449 20.064 23.969 20.064C22.489 20.064 21.281 18.888 21.281 17.407C21.2823 16.6946 21.566 16.0118 22.0698 15.5081C22.5737 15.0045 23.2566 14.7211 23.969 14.72ZM7.75 16.094C7.40251 16.0958 7.06976 16.2346 6.82395 16.4802C6.57814 16.7259 6.4391 17.0585 6.437 17.406C6.43858 17.7538 6.57738 18.087 6.82325 18.333C7.06912 18.5791 7.40217 18.7182 7.75 18.72C8.469 18.72 9.031 18.126 9.031 17.407C9.031 16.689 8.469 16.094 7.75 16.094ZM23.75 16.094C23.031 16.094 22.469 16.687 22.469 17.406C22.469 18.125 23.031 18.688 23.75 18.688C24.469 18.688 25.063 18.125 25.063 17.406C25.0609 17.0585 24.9219 16.7259 24.6761 16.4802C24.4302 16.2346 24.0975 16.0958 23.75 16.094Z" fill="white"/>
</svg>
